<svg height="512pt" viewBox="-1 0 512 512.00013" width="512pt" xmlns="http://www.w3.org/2000/svg"><path d="m510.71875 433.703125c0 23.273437-18.867188 42.140625-42.140625 42.140625s-42.140625-18.867188-42.140625-42.140625 18.867188-42.140625 42.140625-42.140625 42.140625 18.867188 42.140625 42.140625zm0 0" fill="#ffdc13"/><path d="m487.53125 396.066406c2.875 5.699219 4.503906 12.136719 4.503906 18.953125 0 23.277344-18.867187 42.144531-42.140625 42.144531-6.816406 0-13.253906-1.632812-18.953125-4.507812 6.941406 13.75 21.183594 23.1875 37.636719 23.1875 23.273437 0 42.140625-18.867188 42.140625-42.140625 0-16.453125-9.4375-30.695313-23.1875-37.636719zm0 0" fill="#ffa511"/><path d="m311.664062 469.859375c0 23.273437-18.867187 42.140625-42.140624 42.140625-23.277344 0-42.144532-18.867188-42.144532-42.140625s18.867188-42.140625 42.144532-42.140625c23.273437 0 42.140624 18.867188 42.140624 42.140625zm0 0" fill="#ffdc13"/><path d="m480.96875 395.390625c0 23.273437-18.867188 42.140625-42.140625 42.140625s-42.140625-18.867188-42.140625-42.140625 18.867188-42.140625 42.140625-42.140625 42.140625 18.867188 42.140625 42.140625zm0 0" fill="#ffdc13"/><path d="m413.441406 405.722656c0 23.273438-18.867187 42.140625-42.140625 42.140625-23.273437 0-42.140625-18.867187-42.140625-42.140625 0-23.273437 18.867188-42.140625 42.140625-42.140625 23.273438 0 42.140625 18.867188 42.140625 42.140625zm0 0" fill="#ffdc13"/><g fill="#ffa511"><path d="m288.476562 432.222656c2.875 5.699219 4.503907 12.136719 4.503907 18.953125 0 23.273438-18.867188 42.140625-42.140625 42.140625-6.820313 0-13.253906-1.628906-18.953125-4.503906 6.9375 13.75 21.179687 23.1875 37.636719 23.1875 23.273437 0 42.140624-18.867188 42.140624-42.140625-.003906-16.453125-9.4375-30.695313-23.1875-37.636719zm0 0"/><path d="m457.78125 357.757812c2.875 5.699219 4.503906 12.132813 4.503906 18.953126 0 23.273437-18.867187 42.140624-42.140625 42.140624-6.820312 0-13.253906-1.632812-18.953125-4.507812 6.9375 13.75 21.179688 23.1875 37.636719 23.1875 23.273437 0 42.140625-18.867188 42.140625-42.140625 0-16.453125-9.4375-30.695313-23.1875-37.632813zm0 0"/><path d="m390.253906 368.089844c2.878906 5.699218 4.507813 12.132812 4.507813 18.953125 0 23.273437-18.867188 42.140625-42.140625 42.140625-6.820313 0-13.253906-1.628906-18.953125-4.507813 6.9375 13.753907 21.179687 23.1875 37.636719 23.1875 23.273437 0 42.140624-18.863281 42.140624-42.140625-.003906-16.453125-9.4375-30.695312-23.191406-37.632812zm0 0"/><path d="m306.578125 413.253906c.277344-8.15625 1.628906-18.386718 11.402344-28.160156 11.152343-11.152344 22.902343-11.339844 31.484375-11.472656 7.511718-.121094 12.042968-.191406 17.332031-5.480469 5.292969-5.292969 5.363281-9.824219 5.484375-17.335937.132812-8.578126.320312-20.332032 11.472656-31.484376 11.152344-11.152343 22.90625-11.339843 31.488282-11.476562.90625-.011719 1.945312-.066406 2.988281-.132812 1.9375-.125 2.632812-2.625 1.03125-3.730469l-79.476563-54.726563-90.660156 90.660156 53.746094 74.539063c1.144531 1.585937 3.648437.808594 3.707031-1.144531 0-.023438 0-.039063 0-.054688zm0 0"/></g><path d="m419.261719 303.980469-79.476563-54.726563-20.511718 20.511719 59.734374 55.21875c1.308594-1.890625 2.867188-3.785156 4.746094-5.664063 11.152344-11.152343 22.90625-11.339843 31.488282-11.472656.90625-.015625 1.945312-.066406 2.988281-.132812 1.941406-.128906 2.632812-2.628906 1.03125-3.734375zm0 0" fill="#f48500"/><path d="m169.339844 441.203125c-4.140625 0-7.5-3.355469-7.5-7.5s3.359375-7.5 7.5-7.5c35.195312 0 64.046875-27.691406 65.90625-62.433594l-12.726563 11.554688c-15.824219 14.367187-37.828125 20.648437-58.851562 16.800781l-17.679688-3.234375c-4.074219-.746094-6.769531-4.65625-6.027343-8.730469.746093-4.074218 4.652343-6.765625 8.730468-6.027344l17.679688 3.234376c16.449218 3.015624 33.675781-1.902344 46.066406-13.148438l25.359375-23.023438c2.195313-1.996093 5.363281-2.511718 8.078125-1.304687 2.714844 1.199219 4.464844 3.886719 4.464844 6.855469v13.460937c0 44.660157-36.335938 80.996094-81 80.996094zm0 0" fill="#3a6187"/><path d="m116.054688 29.050781-87 87.003907c-38.738282 38.738281-38.738282 101.542968 0 140.277343l23.941406 23.945313c41.476562 41.476562 96.917968 66.015625 155.503906 68.832031h.003906c17.554688.84375 34.648438-5.761719 47.078125-18.1875l75.339844-75.339844c12.429687-12.429687 19.03125-29.523437 18.1875-47.082031-2.816406-58.585938-27.355469-114.027344-68.832031-155.503906l-23.945313-23.945313c-38.734375-38.734375-101.539062-38.734375-140.277343 0zm0 0" fill="#ffa511"/><path d="m349.109375 208.503906c-2.816406-58.589844-27.355469-114.03125-68.832031-155.507812l-23.945313-23.945313c-27.867187-27.867187-68.195312-35.683593-103.054687-23.449219 13.589844 4.769532 26.351562 12.585938 37.21875 23.449219l23.945312 23.945313c41.476563 41.476562 66.015625 96.917968 68.832032 155.507812.84375 17.554688-5.761719 34.648438-18.191407 47.078125l-75.339843 75.339844c-5.660157 5.660156-12.296876 10.097656-19.496094 13.1875 12.519531 2.691406 25.3125 4.378906 38.253906 5h.003906c17.554688.84375 34.648438-5.761719 47.078125-18.1875l75.339844-75.339844c12.425781-12.429687 19.03125-29.523437 18.1875-47.078125zm0 0" fill="#f48500"/><path d="m352.066406 265.804688-86.273437 86.273437c-7.742188 7.738281-20.292969 7.738281-28.035157 0l-.800781-.800781c-7.738281-7.742188-7.738281-20.292969 0-28.035156l86.273438-86.269532c7.742187-7.742187 20.292969-7.742187 28.035156 0l.800781.796875c7.738282 7.742188 7.738282 20.292969 0 28.035157zm0 0" fill="#48709b"/><path d="m351.664062 237.371094c-2.097656-2.097656-4.546874-3.628906-7.148437-4.621094 2.769531 7.277344 1.238281 15.820312-4.621094 21.683594l-85.476562 85.472656c-5.859375 5.863281-14.402344 7.390625-21.679688 4.621094.992188 2.605468 2.523438 5.050781 4.621094 7.148437 7.960937 7.964844 20.871094 7.964844 28.832031 0l85.472656-85.472656c7.960938-7.960937 7.960938-20.871094 0-28.832031zm0 0" fill="#3a6187"/></svg>